<svg width="1024" height="1024" viewBox="0 0 1024 1024" fill="none" xmlns="http://www.w3.org/2000/svg">
  <rect width="1024" height="1024" rx="220" fill="#0D1410"/>
  <rect x="20" y="20" width="984" height="984" rx="200" stroke="#223229" stroke-width="40"/>
  <rect x="176" y="176" width="672" height="672" rx="160" fill="#121B16"/>
  <g fill="#F4F8F5">
    <rect x="240" y="280" width="64" height="64" rx="8"/>
    <rect x="320" y="280" width="64" height="64" rx="8"/>
    <rect x="400" y="280" width="64" height="64" rx="8"/>
    <rect x="640" y="280" width="64" height="64" rx="8"/>
    <rect x="720" y="280" width="64" height="64" rx="8"/>

    <rect x="240" y="360" width="64" height="64" rx="8"/>
    <rect x="320" y="360" width="64" height="64" rx="8"/>
    <rect x="400" y="360" width="64" height="64" rx="8"/>
    <rect x="640" y="360" width="64" height="64" rx="8"/>
    <rect x="720" y="360" width="64" height="64" rx="8"/>

    <rect x="240" y="440" width="64" height="64" rx="8"/>
    <rect x="320" y="440" width="64" height="64" rx="8"/>
    <rect x="480" y="440" width="64" height="64" rx="8"/>
    <rect x="640" y="440" width="64" height="64" rx="8"/>
    <rect x="720" y="440" width="64" height="64" rx="8"/>

    <rect x="240" y="520" width="64" height="64" rx="8"/>
    <rect x="320" y="520" width="64" height="64" rx="8"/>
    <rect x="480" y="520" width="64" height="64" rx="8"/>
    <rect x="640" y="520" width="64" height="64" rx="8"/>
    <rect x="720" y="520" width="64" height="64" rx="8"/>

    <rect x="240" y="600" width="64" height="64" rx="8"/>
    <rect x="320" y="600" width="64" height="64" rx="8"/>
    <rect x="560" y="600" width="64" height="64" rx="8"/>
    <rect x="640" y="600" width="64" height="64" rx="8"/>
    <rect x="720" y="600" width="64" height="64" rx="8"/>

    <rect x="240" y="680" width="64" height="64" rx="8"/>
    <rect x="320" y="680" width="64" height="64" rx="8"/>
    <rect x="560" y="680" width="64" height="64" rx="8"/>
    <rect x="640" y="680" width="64" height="64" rx="8"/>
    <rect x="720" y="680" width="64" height="64" rx="8"/>

  </g>
</svg>
